<svg height="30" viewBox="0 0 30 30" width="30" xmlns="http://www.w3.org/2000/svg"><g fill="#fff"><path d="m3.988 14.989c-.066-.042-.123-.078-.18-.115a7.914 7.914 0 0 1 -3.808-7.047 8.016 8.016 0 0 1 6.8-7.804.376.376 0 0 1 .457.194 3.742 3.742 0 0 0 .262.361 5.84 5.84 0 0 0 -4.099 2.222 5.707 5.707 0 0 0 -1.264 3.445 5.852 5.852 0 0 0 3.612 5.639 7.237 7.237 0 0 0 2.268.335 6.85 6.85 0 0 0 2.127-.32 5.826 5.826 0 0 0 3.684-5.528 5.906 5.906 0 0 0 -5.4-5.8c.147-.191.272-.371.418-.539.035-.041.144-.032.215-.024a7.713 7.713 0 0 1 4.014 1.775 7.824 7.824 0 0 1 2.885 6.752 7.868 7.868 0 0 1 -3.846 6.376c-.043.028-.088.054-.131.082a7.378 7.378 0 0 1 -3.871 1.007 7.224 7.224 0 0 1 -4.143-1.011"/><path d="m5.469 2.954-1.485-2.954-1.469 2.942-1.2 2.4-.657 1.325-.658 1.321a.72.72 0 0 0 .077.012h1.885a.228.228 0 0 0 .149-.089 2.33 2.33 0 0 1 3.775 0 .231.231 0 0 0 .2.1h1.768c.041 0 .082 0 .143-.008l-1.31-2.627" transform="translate(22 22)"/></g></svg>