<svg height="24" viewBox="0 0 32 24" width="32" xmlns="http://www.w3.org/2000/svg"><g fill="#fff"><path d="m.366 30.341-.731-.682 13.681-14.659-13.682-14.659.732-.682 14 15a.5.5 0 0 1 0 .682z" transform="matrix(0 1 -1 0 31 1)"/><path d="m2 1a1 1 0 0 0 -1 1v20a1 1 0 0 0 1 1h28a1 1 0 0 0 1-1v-20a1 1 0 0 0 -1-1zm0-1h28a2 2 0 0 1 2 2v20a2 2 0 0 1 -2 2h-28a2 2 0 0 1 -2-2v-20a2 2 0 0 1 2-2z"/><path d="m690.354 4140.742-.707-.707 11.394-11.395.707.707z" transform="translate(-689 -4116.994)"/><path d="m701.041 4140.742-11.394-11.394.707-.707 11.394 11.394z" transform="translate(-670.394 -4116.994)"/></g></svg>