<svg height="40" viewBox="0 0 40 40" width="40" xmlns="http://www.w3.org/2000/svg" xmlns:xlink="http://www.w3.org/1999/xlink"><clipPath id="a"><path d="m0 0h40v40h-40z"/></clipPath><g clip-path="url(#a)"><path d="m40 20a20 20 0 1 1 -20-20 20 20 0 0 1 20 20" fill="#1d9bf0"/></g><g clip-path="url(#a)"><path d="m96.891 133.6a13.625 13.625 0 0 0 13.718-13.718q0-.313-.014-.623a9.811 9.811 0 0 0 2.405-2.5 9.625 9.625 0 0 1 -2.769.759 4.838 4.838 0 0 0 2.12-2.667 9.662 9.662 0 0 1 -3.061 1.17 4.826 4.826 0 0 0 -8.216 4.4 13.688 13.688 0 0 1 -9.938-5.037 4.825 4.825 0 0 0 1.493 6.437 4.787 4.787 0 0 1 -2.184-.6v.062a4.824 4.824 0 0 0 3.868 4.727 4.816 4.816 0 0 1 -2.177.083 4.827 4.827 0 0 0 4.5 3.349 9.675 9.675 0 0 1 -5.988 2.064 9.82 9.82 0 0 1 -1.15-.067 13.65 13.65 0 0 0 7.391 2.166" fill="#fff" transform="translate(-80.55 -103.055)"/></g></svg>