<svg height="40" viewBox="0 0 40 40" width="40" xmlns="http://www.w3.org/2000/svg"><circle cx="20" cy="20" fill="#144064" r="20"/><path d="m1.078 0v-9.8h3.878a3.009 3.009 0 0 1 2.037.637 2.3 2.3 0 0 1 .735 1.841 2.422 2.422 0 0 1 -.378 1.386 2 2 0 0 1 -.994.784 2.194 2.194 0 0 1 1.309.875 2.7 2.7 0 0 1 .511 1.645 2.442 2.442 0 0 1 -.776 1.974 3.412 3.412 0 0 1 -2.262.658zm1.274-1.2h2.632a2.058 2.058 0 0 0 1.386-.389 1.52 1.52 0 0 0 .434-1.2 1.5 1.5 0 0 0 -.518-1.211 1.979 1.979 0 0 0 -1.316-.438h-2.618zm0-4.452h2.464a1.5 1.5 0 0 0 1.134-.41 1.486 1.486 0 0 0 .392-1.078q0-1.456-1.61-1.456h-2.38zm7.462 5.652v-10.038h1.26v10.038zm5.964.154a3.089 3.089 0 0 1 -1.645-.441 3.07 3.07 0 0 1 -1.133-1.239 3.965 3.965 0 0 1 -.413-1.848 3.923 3.923 0 0 1 .413-1.841 3.081 3.081 0 0 1 1.134-1.232 3.089 3.089 0 0 1 1.645-.441 3.089 3.089 0 0 1 1.645.441 3.081 3.081 0 0 1 1.134 1.232 3.923 3.923 0 0 1 .413 1.841 3.965 3.965 0 0 1 -.413 1.848 3.07 3.07 0 0 1 -1.135 1.239 3.089 3.089 0 0 1 -1.645.441zm0-1.148a1.74 1.74 0 0 0 1.393-.637 2.613 2.613 0 0 0 .539-1.743 2.585 2.585 0 0 0 -.539-1.736 1.748 1.748 0 0 0 -1.393-.63 1.748 1.748 0 0 0 -1.393.63 2.585 2.585 0 0 0 -.539 1.736 2.613 2.613 0 0 0 .539 1.743 1.74 1.74 0 0 0 1.393.637zm7.406 3.894a3.221 3.221 0 0 1 -2.926-1.54l1.008-.688a2.081 2.081 0 0 0 1.918 1.064 1.647 1.647 0 0 0 1.372-.581 2.873 2.873 0 0 0 .462-1.8v-.742a2.388 2.388 0 0 1 -.819.658 2.39 2.39 0 0 1 -1.071.238 3.166 3.166 0 0 1 -1.554-.378 2.645 2.645 0 0 1 -1.071-1.1 3.624 3.624 0 0 1 -.385-1.731 3.573 3.573 0 0 1 .382-1.725 2.665 2.665 0 0 1 1.074-1.085 3.166 3.166 0 0 1 1.554-.378 2.457 2.457 0 0 1 1.127.259 2.467 2.467 0 0 1 .861.721l.042-.812h1.106v6.076a3.893 3.893 0 0 1 -.791 2.644 2.88 2.88 0 0 1 -2.289.9zm.028-4.5a1.77 1.77 0 0 0 1.358-.57 2.156 2.156 0 0 0 .53-1.53 2.1 2.1 0 0 0 -.532-1.512 1.791 1.791 0 0 0 -1.358-.56 1.709 1.709 0 0 0 -1.323.56 2.157 2.157 0 0 0 -.509 1.512 2.21 2.21 0 0 0 .511 1.526 1.689 1.689 0 0 0 1.323.574z" fill="#fff" transform="translate(7 24)"/></svg>